<svg width="157" height="289" viewBox="0 0 157 289" fill="none" xmlns="http://www.w3.org/2000/svg">
<g id="Goal Marker">
<g id="Marker Base">
<path id="Outer Border" d="M157 78.5C157 121.854 78.5 288.88 78.5 288.88C78.5 288.88 0 121.854 0 78.5C0 35.1456 35.1456 0 78.5 0C121.854 0 157 35.1456 157 78.5Z" fill="grey"/>
<path id="Inner Marker" d="M149.87 78.435C149.87 117.887 78.435 269.881 78.435 269.881C78.435 269.881 7 117.887 7 78.435C7 38.9825 38.9825 7 78.435 7C117.887 7 149.87 38.9825 149.87 78.435Z" fill="#000080"/>
</g>
<path id="Goal" fill-rule="evenodd" clip-rule="evenodd" d="M73.4574 26.4043C73.4574 26.7545 73.3226 26.8085 72.4468 26.8085C71.5035 26.8085 71.4362 26.8423 71.4362 27.3138C71.4362 27.7181 71.3351 27.8191 70.9309 27.8191C70.5266 27.8191 70.4255 27.9202 70.4255 28.3245C70.4255 28.7287 70.3245 28.8298 69.9202 28.8298C69.516 28.8298 69.4149 28.9309 69.4149 29.3351C69.4149 29.7394 69.3138 29.8404 68.9096 29.8404C68.5053 29.8404 68.4043 29.9415 68.4043 30.3457C68.4043 30.75 68.3032 30.8511 67.8989 30.8511C67.4274 30.8511 67.3936 30.9184 67.3936 31.8617C67.3936 32.805 67.3599 32.8723 66.8883 32.8723H66.383V36.4096V39.9468H66.8883C67.3599 39.9468 67.3936 40.0141 67.3936 40.9574C67.3936 41.9008 67.4274 41.9681 67.8989 41.9681C68.3705 41.9681 68.4043 42.0354 68.4043 42.9787C68.4043 43.9221 68.438 43.9894 68.9096 43.9894C69.3138 43.9894 69.4149 44.0904 69.4149 44.4947C69.4149 44.8989 69.516 45 69.9202 45C70.3245 45 70.4255 45.1011 70.4255 45.5053V46.0106H54.7606H39.0957V53.5904V61.1702H40.6117H42.1277V62.1808C42.1277 63.1242 42.0939 63.1915 41.6223 63.1915C41.2181 63.1915 41.117 63.2926 41.117 63.6968C41.117 64.1011 41.016 64.2021 40.6117 64.2021C40.1401 64.2021 40.1064 64.2694 40.1064 65.2128C40.1064 66.1561 40.0726 66.2234 39.6011 66.2234H39.0957V68.75V71.2766H39.6011C40.0726 71.2766 40.1064 71.3439 40.1064 72.2872C40.1064 73.2306 40.1401 73.2979 40.6117 73.2979C41.016 73.2979 41.117 73.3989 41.117 73.8032C41.117 74.2074 41.2181 74.3085 41.6223 74.3085H42.1277V76.3298V78.3511H41.6223C41.2181 78.3511 41.117 78.4521 41.117 78.8564C41.117 79.2606 41.016 79.3617 40.6117 79.3617H40.1064V82.3936V85.4255H40.6117C41.0833 85.4255 41.117 85.4928 41.117 86.4362C41.117 87.3795 41.1508 87.4468 41.6223 87.4468C42.0266 87.4468 42.1277 87.5479 42.1277 87.9521C42.1277 88.3564 42.2287 88.4574 42.633 88.4574C43.0372 88.4574 43.1383 88.5585 43.1383 88.9628C43.1383 89.367 43.2394 89.4681 43.6436 89.4681H44.1489V91.4894V93.5106H43.6436C43.1721 93.5106 43.1383 93.5779 43.1383 94.5213C43.1383 95.4646 43.1045 95.5319 42.633 95.5319C42.139 95.5319 42.1277 95.5657 42.1277 97.0479C42.1277 98.5301 42.139 98.5638 42.633 98.5638C43.1045 98.5638 43.1383 98.6311 43.1383 99.5745C43.1383 100.518 43.1721 100.585 43.6436 100.585C44.1152 100.585 44.1489 100.652 44.1489 101.596C44.1489 102.539 44.1827 102.606 44.6543 102.606C45.0585 102.606 45.1596 102.707 45.1596 103.112C45.1596 103.606 45.1933 103.617 46.6755 103.617H48.1915V106.144V108.67H47.6862C47.1922 108.67 47.1809 108.704 47.1809 110.186C47.1809 111.668 47.1922 111.702 47.6862 111.702C48.1577 111.702 48.1915 111.769 48.1915 112.713C48.1915 113.656 48.2252 113.723 48.6968 113.723C49.1684 113.723 49.2021 113.791 49.2021 114.734C49.2021 115.677 49.2359 115.745 49.7074 115.745C50.1117 115.745 50.2128 115.846 50.2128 116.25C50.2128 116.722 50.2801 116.755 51.2234 116.755C52.1667 116.755 52.234 116.789 52.234 117.261C52.234 117.732 52.3014 117.766 53.2447 117.766C54.188 117.766 54.2553 117.8 54.2553 118.271C54.2553 118.676 54.3564 118.777 54.7606 118.777C55.1649 118.777 55.266 118.878 55.266 119.282V119.787H43.6436H32.0213V120.293C32.0213 120.697 31.9202 120.798 31.516 120.798C31.1117 120.798 31.0106 120.899 31.0106 121.303C31.0106 121.707 30.9096 121.809 30.5053 121.809C30.0338 121.809 30 121.876 30 122.819C30 123.762 30.0338 123.83 30.5053 123.83H31.0106V127.367V130.904H31.516H32.0213V134.441V137.979H32.5266H33.0319V141.516V145.053H33.5372H34.0426V148.59V152.128H34.5479C35.0194 152.128 35.0532 152.195 35.0532 153.138C35.0532 154.082 35.0869 154.149 35.5585 154.149C35.9628 154.149 36.0638 154.25 36.0638 154.654V155.16H54.2547H72.4458L72.4967 191.391L72.5479 227.622H77.5H82.4521L82.5033 191.391L82.5542 155.16H100.745H118.936V154.654C118.936 154.25 119.037 154.149 119.441 154.149C119.913 154.149 119.947 154.082 119.947 153.138C119.947 152.195 119.981 152.128 120.452 152.128H120.957V148.59V145.053H121.463H121.968V141.516V137.979H122.473H122.979V133.936V129.894H123.484H123.989V126.356V122.819H124.495C124.899 122.819 125 122.718 125 122.314C125 121.91 124.899 121.809 124.495 121.809C124.09 121.809 123.989 121.707 123.989 121.303C123.989 120.899 123.888 120.798 123.484 120.798C123.08 120.798 122.979 120.697 122.979 120.293V119.787H111.356H99.734V119.282C99.734 118.878 99.8351 118.777 100.239 118.777C100.644 118.777 100.745 118.676 100.745 118.271C100.745 117.8 100.812 117.766 101.755 117.766C102.699 117.766 102.766 117.732 102.766 117.261C102.766 116.789 102.833 116.755 103.777 116.755C104.72 116.755 104.787 116.722 104.787 116.25C104.787 115.846 104.888 115.745 105.293 115.745C105.764 115.745 105.798 115.677 105.798 114.734C105.798 113.791 105.832 113.723 106.303 113.723C106.775 113.723 106.809 113.656 106.809 112.713C106.809 111.769 106.842 111.702 107.314 111.702C107.808 111.702 107.819 111.668 107.819 110.186C107.819 108.704 107.808 108.67 107.314 108.67H106.809V106.144V103.617H108.324C109.807 103.617 109.84 103.606 109.84 103.112C109.84 102.707 109.941 102.606 110.346 102.606C110.817 102.606 110.851 102.539 110.851 101.596C110.851 100.652 110.885 100.585 111.356 100.585C111.85 100.585 111.862 100.551 111.862 99.0691C111.862 97.5869 111.873 97.5532 112.367 97.5532C112.839 97.5532 112.872 97.4859 112.872 96.5425C112.872 95.5992 112.839 95.5319 112.367 95.5319C111.895 95.5319 111.862 95.4646 111.862 94.5213C111.862 93.5779 111.828 93.5106 111.356 93.5106H110.851V91.4894V89.4681H111.356C111.761 89.4681 111.862 89.367 111.862 88.9628C111.862 88.5585 111.963 88.4574 112.367 88.4574C112.771 88.4574 112.872 88.3564 112.872 87.9521C112.872 87.5479 112.973 87.4468 113.378 87.4468C113.849 87.4468 113.883 87.3795 113.883 86.4362C113.883 85.4928 113.917 85.4255 114.388 85.4255H114.894V82.3936V79.3617H114.388C113.984 79.3617 113.883 79.2606 113.883 78.8564C113.883 78.4521 113.782 78.3511 113.378 78.3511C112.973 78.3511 112.872 78.25 112.872 77.8457C112.872 77.4415 112.771 77.3404 112.367 77.3404C111.963 77.3404 111.862 77.2394 111.862 76.8351C111.862 76.4308 111.963 76.3298 112.367 76.3298C112.839 76.3298 112.872 76.2625 112.872 75.3191C112.872 74.3758 112.906 74.3085 113.378 74.3085C113.782 74.3085 113.883 74.2074 113.883 73.8032C113.883 73.3989 113.984 73.2979 114.388 73.2979C114.86 73.2979 114.894 73.2306 114.894 72.2872C114.894 71.3439 114.927 71.2766 115.399 71.2766H115.904V68.75V66.2234H115.399C114.927 66.2234 114.894 66.1561 114.894 65.2128C114.894 64.2694 114.86 64.2021 114.388 64.2021C113.984 64.2021 113.883 64.1011 113.883 63.6968C113.883 63.2926 113.782 63.1915 113.378 63.1915C112.906 63.1915 112.872 63.1242 112.872 62.1808V61.1702H114.388H115.904V53.5904V46.0106H100.239H84.5745V45.5053C84.5745 45.1011 84.6755 45 85.0798 45C85.484 45 85.5851 44.8989 85.5851 44.4947C85.5851 44.0904 85.6862 43.9894 86.0904 43.9894C86.562 43.9894 86.5957 43.9221 86.5957 42.9787C86.5957 42.0354 86.6295 41.9681 87.1011 41.9681C87.5726 41.9681 87.6064 41.9008 87.6064 40.9574C87.6064 40.0141 87.6401 39.9468 88.1117 39.9468H88.617V36.4096V32.8723H88.1117C87.6401 32.8723 87.6064 32.805 87.6064 31.8617C87.6064 30.9184 87.5726 30.8511 87.1011 30.8511C86.6968 30.8511 86.5957 30.75 86.5957 30.3457C86.5957 29.9415 86.4947 29.8404 86.0904 29.8404C85.6862 29.8404 85.5851 29.7394 85.5851 29.3351C85.5851 28.9309 85.484 28.8298 85.0798 28.8298C84.6755 28.8298 84.5745 28.7287 84.5745 28.3245C84.5745 27.9202 84.4734 27.8191 84.0692 27.8191C83.6649 27.8191 83.5638 27.7181 83.5638 27.3138C83.5638 26.8423 83.4965 26.8085 82.5532 26.8085C81.6774 26.8085 81.5426 26.7545 81.5426 26.4043C81.5426 26.0135 81.4077 26 77.5 26C73.5923 26 73.4574 26.0135 73.4574 26.4043ZM58.2979 62.1808C58.2979 63.1242 58.2641 63.1915 57.7926 63.1915C57.3883 63.1915 57.2872 63.2926 57.2872 63.6968C57.2872 64.1011 57.1862 64.2021 56.7819 64.2021C56.3777 64.2021 56.2766 64.3032 56.2766 64.7074C56.2766 65.1117 56.1755 65.2128 55.7713 65.2128H55.266V69.2553V73.2979H55.7713C56.1755 73.2979 56.2766 73.3989 56.2766 73.8032C56.2766 74.2074 56.3777 74.3085 56.7819 74.3085C57.1862 74.3085 57.2872 74.4096 57.2872 74.8138C57.2872 75.2181 57.3883 75.3191 57.7926 75.3191C58.2641 75.3191 58.2979 75.3865 58.2979 76.3298C58.2979 77.2731 58.2641 77.3404 57.7926 77.3404C57.3883 77.3404 57.2872 77.4415 57.2872 77.8457C57.2872 78.25 57.1862 78.3511 56.7819 78.3511C56.3777 78.3511 56.2766 78.4521 56.2766 78.8564C56.2766 79.2606 56.1755 79.3617 55.7713 79.3617H55.266V82.8989V86.4362H55.7713C56.1755 86.4362 56.2766 86.5372 56.2766 86.9415C56.2766 87.3457 56.3777 87.4468 56.7819 87.4468C57.1862 87.4468 57.2872 87.5479 57.2872 87.9521C57.2872 88.3564 57.3883 88.4574 57.7926 88.4574H58.2979V90.4787V92.5H57.7926C57.3883 92.5 57.2872 92.6011 57.2872 93.0053C57.2872 93.4096 57.1862 93.5106 56.7819 93.5106H56.2766V97.0479V100.585H56.7819C57.1862 100.585 57.2872 100.686 57.2872 101.09C57.2872 101.495 57.3883 101.596 57.7926 101.596C58.1968 101.596 58.2979 101.697 58.2979 102.101C58.2979 102.505 58.3989 102.606 58.8032 102.606C59.2074 102.606 59.3085 102.707 59.3085 103.112C59.3085 103.516 59.4096 103.617 59.8138 103.617C60.3078 103.617 60.3191 103.651 60.3191 105.133C60.3191 106.615 60.3078 106.649 59.8138 106.649C59.4096 106.649 59.3085 106.75 59.3085 107.154C59.3085 107.559 59.2074 107.66 58.8032 107.66H58.2979V111.197V114.734H58.8032C59.2074 114.734 59.3085 114.835 59.3085 115.239C59.3085 115.644 59.4096 115.745 59.8138 115.745C60.2181 115.745 60.3191 115.846 60.3191 116.25C60.3191 116.654 60.4202 116.755 60.8245 116.755C61.2287 116.755 61.3298 116.856 61.3298 117.261C61.3298 117.665 61.4309 117.766 61.8351 117.766C62.2394 117.766 62.3404 117.867 62.3404 118.271C62.3404 118.676 62.4415 118.777 62.8457 118.777C63.25 118.777 63.3511 118.878 63.3511 119.282C63.3511 119.753 63.2838 119.787 62.3404 119.787C61.3971 119.787 61.3298 119.753 61.3298 119.282C61.3298 118.878 61.2287 118.777 60.8245 118.777C60.4202 118.777 60.3191 118.676 60.3191 118.271V117.766H58.2979H56.2766V116.25C56.2766 114.768 56.2879 114.734 56.7819 114.734C57.2759 114.734 57.2872 114.7 57.2872 113.218C57.2872 111.736 57.2759 111.702 56.7819 111.702C56.3104 111.702 56.2766 111.635 56.2766 110.691C56.2766 109.748 56.2428 109.681 55.7713 109.681C55.2997 109.681 55.266 109.614 55.266 108.67C55.266 107.727 55.2322 107.66 54.7606 107.66C54.3564 107.66 54.2553 107.559 54.2553 107.154C54.2553 106.683 54.188 106.649 53.2447 106.649C52.3014 106.649 52.234 106.615 52.234 106.144C52.234 105.739 52.133 105.638 51.7287 105.638C51.3245 105.638 51.2234 105.537 51.2234 105.133C51.2234 104.729 51.1223 104.628 50.7181 104.628C50.2241 104.628 50.2128 104.594 50.2128 103.112C50.2128 101.629 50.2241 101.596 50.7181 101.596H51.2234V98.5638V95.5319H50.7181C50.2465 95.5319 50.2128 95.4646 50.2128 94.5213C50.2128 93.5779 50.179 93.5106 49.7074 93.5106C49.3032 93.5106 49.2021 93.4096 49.2021 93.0053C49.2021 92.5338 49.1348 92.5 48.1915 92.5H47.1809V90.984C47.1809 89.5018 47.1695 89.4681 46.6755 89.4681C46.2713 89.4681 46.1702 89.367 46.1702 88.9628C46.1702 88.5585 46.2713 88.4574 46.6755 88.4574C47.0798 88.4574 47.1809 88.3564 47.1809 87.9521C47.1809 87.5479 47.2819 87.4468 47.6862 87.4468C48.1802 87.4468 48.1915 87.4131 48.1915 85.9308C48.1915 84.4486 48.2028 84.4149 48.6968 84.4149C49.1011 84.4149 49.2021 84.3138 49.2021 83.9096C49.2021 83.5053 49.1011 83.4043 48.6968 83.4043H48.1915V81.383V79.3617H47.6862C47.2819 79.3617 47.1809 79.2606 47.1809 78.8564C47.1809 78.4521 47.0798 78.3511 46.6755 78.3511C46.2713 78.3511 46.1702 78.25 46.1702 77.8457C46.1702 77.4415 46.0691 77.3404 45.6649 77.3404C45.1709 77.3404 45.1596 77.3067 45.1596 75.8245C45.1596 74.3423 45.1709 74.3085 45.6649 74.3085C46.0691 74.3085 46.1702 74.2074 46.1702 73.8032C46.1702 73.3989 46.2713 73.2979 46.6755 73.2979C47.1695 73.2979 47.1809 73.2641 47.1809 71.7819C47.1809 70.2997 47.1922 70.266 47.6862 70.266C48.1577 70.266 48.1915 70.1986 48.1915 69.2553C48.1915 68.312 48.1577 68.2447 47.6862 68.2447C47.1922 68.2447 47.1809 68.2109 47.1809 66.7287C47.1809 65.2465 47.1695 65.2128 46.6755 65.2128C46.2713 65.2128 46.1702 65.1117 46.1702 64.7074C46.1702 64.3032 46.0691 64.2021 45.6649 64.2021C45.2606 64.2021 45.1596 64.1011 45.1596 63.6968C45.1596 63.2926 45.0585 63.1915 44.6543 63.1915C44.1827 63.1915 44.1489 63.1242 44.1489 62.1808V61.1702H51.2234H58.2979V62.1808ZM72.4468 90.4787V119.787H68.9096H65.3723V118.271C65.3723 116.789 65.3837 116.755 65.8777 116.755C66.3717 116.755 66.383 116.722 66.383 115.239C66.383 113.757 66.3943 113.723 66.8883 113.723C67.3599 113.723 67.3936 113.656 67.3936 112.713C67.3936 111.769 67.3599 111.702 66.8883 111.702C66.3943 111.702 66.383 111.668 66.383 110.186C66.383 108.704 66.3717 108.67 65.8777 108.67C65.4734 108.67 65.3723 108.569 65.3723 108.165C65.3723 107.761 65.2713 107.66 64.867 107.66C64.4628 107.66 64.3617 107.559 64.3617 107.154C64.3617 106.75 64.2606 106.649 63.8564 106.649C63.4521 106.649 63.3511 106.548 63.3511 106.144C63.3511 105.739 63.25 105.638 62.8457 105.638C62.3517 105.638 62.3404 105.605 62.3404 104.122C62.3404 102.64 62.3517 102.606 62.8457 102.606C63.25 102.606 63.3511 102.505 63.3511 102.101C63.3511 101.697 63.4521 101.596 63.8564 101.596H64.3617V98.0585V94.5213H63.8564C63.3848 94.5213 63.3511 94.454 63.3511 93.5106C63.3511 92.5673 63.3173 92.5 62.8457 92.5C62.4415 92.5 62.3404 92.3989 62.3404 91.9947C62.3404 91.5904 62.2394 91.4894 61.8351 91.4894C61.3411 91.4894 61.3298 91.4556 61.3298 89.9734C61.3298 88.4912 61.3411 88.4574 61.8351 88.4574C62.2394 88.4574 62.3404 88.3564 62.3404 87.9521C62.3404 87.5479 62.4415 87.4468 62.8457 87.4468H63.3511V83.4043V79.3617H62.8457C62.4415 79.3617 62.3404 79.2606 62.3404 78.8564C62.3404 78.4521 62.2394 78.3511 61.8351 78.3511C61.4309 78.3511 61.3298 78.25 61.3298 77.8457C61.3298 77.4415 61.2287 77.3404 60.8245 77.3404C60.3305 77.3404 60.3191 77.3067 60.3191 75.8245C60.3191 74.3423 60.3305 74.3085 60.8245 74.3085C61.2287 74.3085 61.3298 74.2074 61.3298 73.8032C61.3298 73.3989 61.4309 73.2979 61.8351 73.2979C62.2394 73.2979 62.3404 73.1968 62.3404 72.7926C62.3404 72.3883 62.4415 72.2872 62.8457 72.2872H63.3511V69.2553V66.2234H62.8457C62.3742 66.2234 62.3404 66.1561 62.3404 65.2128C62.3404 64.2694 62.3067 64.2021 61.8351 64.2021C61.4309 64.2021 61.3298 64.1011 61.3298 63.6968C61.3298 63.2926 61.2287 63.1915 60.8245 63.1915C60.3529 63.1915 60.3191 63.1242 60.3191 62.1808V61.1702H66.383H72.4468V90.4787ZM94.6809 62.1808C94.6809 63.1242 94.6471 63.1915 94.1755 63.1915C93.7713 63.1915 93.6702 63.2926 93.6702 63.6968C93.6702 64.1011 93.5692 64.2021 93.1649 64.2021C92.6933 64.2021 92.6596 64.2694 92.6596 65.2128C92.6596 66.1561 92.6258 66.2234 92.1543 66.2234H91.6489V69.2553V72.2872H92.1543C92.6258 72.2872 92.6596 72.3545 92.6596 73.2979V74.3085H93.6702H94.6809V75.8245C94.6809 77.3067 94.6695 77.3404 94.1755 77.3404C93.7713 77.3404 93.6702 77.4415 93.6702 77.8457C93.6702 78.25 93.5692 78.3511 93.1649 78.3511C92.7606 78.3511 92.6596 78.4521 92.6596 78.8564C92.6596 79.2606 92.5585 79.3617 92.1543 79.3617H91.6489V83.4043V87.4468H92.1543C92.5585 87.4468 92.6596 87.5479 92.6596 87.9521C92.6596 88.3564 92.7606 88.4574 93.1649 88.4574C93.6589 88.4574 93.6702 88.4912 93.6702 89.9734C93.6702 91.4556 93.6589 91.4894 93.1649 91.4894C92.7606 91.4894 92.6596 91.5904 92.6596 91.9947C92.6596 92.3989 92.5585 92.5 92.1543 92.5C91.6827 92.5 91.6489 92.5673 91.6489 93.5106C91.6489 94.454 91.6152 94.5213 91.1436 94.5213H90.6383V98.0585V101.596H91.1436C91.5479 101.596 91.6489 101.697 91.6489 102.101C91.6489 102.505 91.75 102.606 92.1543 102.606C92.6483 102.606 92.6596 102.64 92.6596 104.122C92.6596 105.605 92.6483 105.638 92.1543 105.638C91.75 105.638 91.6489 105.739 91.6489 106.144C91.6489 106.548 91.5479 106.649 91.1436 106.649C90.7394 106.649 90.6383 106.75 90.6383 107.154C90.6383 107.559 90.5372 107.66 90.133 107.66C89.7287 107.66 89.6277 107.761 89.6277 108.165C89.6277 108.569 89.5266 108.67 89.1223 108.67C88.6283 108.67 88.617 108.704 88.617 110.186C88.617 111.668 88.6057 111.702 88.1117 111.702C87.6401 111.702 87.6064 111.769 87.6064 112.713C87.6064 113.656 87.6401 113.723 88.1117 113.723C88.6057 113.723 88.617 113.757 88.617 115.239C88.617 116.722 88.6283 116.755 89.1223 116.755C89.6163 116.755 89.6277 116.789 89.6277 118.271V119.787H86.0904H82.5532V90.4787V61.1702H88.617H94.6809V62.1808ZM110.851 62.1808C110.851 63.1242 110.817 63.1915 110.346 63.1915C109.941 63.1915 109.84 63.2926 109.84 63.6968C109.84 64.1011 109.739 64.2021 109.335 64.2021C108.931 64.2021 108.83 64.3032 108.83 64.7074C108.83 65.1117 108.729 65.2128 108.324 65.2128C107.83 65.2128 107.819 65.2465 107.819 66.7287C107.819 68.2109 107.808 68.2447 107.314 68.2447C106.842 68.2447 106.809 68.312 106.809 69.2553C106.809 70.1986 106.842 70.266 107.314 70.266C107.808 70.266 107.819 70.2997 107.819 71.7819C107.819 73.2641 107.83 73.2979 108.324 73.2979C108.729 73.2979 108.83 73.3989 108.83 73.8032C108.83 74.2074 108.931 74.3085 109.335 74.3085C109.829 74.3085 109.84 74.3423 109.84 75.8245C109.84 77.3067 109.829 77.3404 109.335 77.3404C108.931 77.3404 108.83 77.4415 108.83 77.8457C108.83 78.25 108.729 78.3511 108.324 78.3511C107.92 78.3511 107.819 78.4521 107.819 78.8564C107.819 79.2606 107.718 79.3617 107.314 79.3617C106.82 79.3617 106.809 79.3955 106.809 80.8777C106.809 82.3599 106.797 82.3936 106.303 82.3936C105.832 82.3936 105.798 82.4609 105.798 83.4043C105.798 84.3476 105.832 84.4149 106.303 84.4149C106.797 84.4149 106.809 84.4486 106.809 85.9308C106.809 87.4131 106.82 87.4468 107.314 87.4468C107.718 87.4468 107.819 87.5479 107.819 87.9521C107.819 88.3564 107.92 88.4574 108.324 88.4574C108.729 88.4574 108.83 88.5585 108.83 88.9628C108.83 89.367 108.729 89.4681 108.324 89.4681C107.83 89.4681 107.819 89.5018 107.819 90.984V92.5H106.809C105.865 92.5 105.798 92.5338 105.798 93.0053C105.798 93.4096 105.697 93.5106 105.293 93.5106C104.821 93.5106 104.787 93.5779 104.787 94.5213C104.787 95.4646 104.753 95.5319 104.282 95.5319H103.777V98.5638V101.596H104.282C104.776 101.596 104.787 101.629 104.787 103.112C104.787 104.594 104.776 104.628 104.282 104.628C103.878 104.628 103.777 104.729 103.777 105.133C103.777 105.537 103.676 105.638 103.271 105.638C102.867 105.638 102.766 105.739 102.766 106.144C102.766 106.615 102.699 106.649 101.755 106.649C100.812 106.649 100.745 106.683 100.745 107.154C100.745 107.559 100.644 107.66 100.239 107.66C99.8351 107.66 99.734 107.761 99.734 108.165C99.734 108.569 99.633 108.67 99.2287 108.67C98.7347 108.67 98.7234 108.704 98.7234 110.186C98.7234 111.668 98.7121 111.702 98.2181 111.702C97.7241 111.702 97.7128 111.736 97.7128 113.218C97.7128 114.7 97.7241 114.734 98.2181 114.734C98.7121 114.734 98.7234 114.768 98.7234 116.25V117.766H96.7021H94.6809V118.271C94.6809 118.676 94.5798 118.777 94.1755 118.777C93.7713 118.777 93.6702 118.878 93.6702 119.282C93.6702 119.753 93.6029 119.787 92.6596 119.787C91.7162 119.787 91.6489 119.753 91.6489 119.282C91.6489 118.878 91.75 118.777 92.1543 118.777C92.5585 118.777 92.6596 118.676 92.6596 118.271C92.6596 117.867 92.7606 117.766 93.1649 117.766C93.5692 117.766 93.6702 117.665 93.6702 117.261C93.6702 116.856 93.7713 116.755 94.1755 116.755C94.5798 116.755 94.6809 116.654 94.6809 116.25C94.6809 115.846 94.7819 115.745 95.1862 115.745C95.5904 115.745 95.6915 115.644 95.6915 115.239C95.6915 114.835 95.7926 114.734 96.1968 114.734H96.7021V111.197V107.66H96.1968C95.7926 107.66 95.6915 107.559 95.6915 107.154C95.6915 106.75 95.5904 106.649 95.1862 106.649C94.6922 106.649 94.6809 106.615 94.6809 105.133C94.6809 103.651 94.6922 103.617 95.1862 103.617C95.5904 103.617 95.6915 103.516 95.6915 103.112C95.6915 102.707 95.7926 102.606 96.1968 102.606C96.6011 102.606 96.7021 102.505 96.7021 102.101C96.7021 101.697 96.8032 101.596 97.2074 101.596C97.6117 101.596 97.7128 101.495 97.7128 101.09C97.7128 100.686 97.8138 100.585 98.2181 100.585H98.7234V97.0479V93.5106H98.2181C97.8138 93.5106 97.7128 93.4096 97.7128 93.0053C97.7128 92.6011 97.6117 92.5 97.2074 92.5H96.7021V90.4787V88.4574H97.2074C97.6117 88.4574 97.7128 88.3564 97.7128 87.9521C97.7128 87.5479 97.8138 87.4468 98.2181 87.4468C98.6223 87.4468 98.7234 87.3457 98.7234 86.9415C98.7234 86.5372 98.8245 86.4362 99.2287 86.4362H99.734V82.8989V79.3617H99.2287C98.8245 79.3617 98.7234 79.2606 98.7234 78.8564C98.7234 78.4521 98.6223 78.3511 98.2181 78.3511C97.8138 78.3511 97.7128 78.25 97.7128 77.8457C97.7128 77.4415 97.6117 77.3404 97.2074 77.3404C96.7359 77.3404 96.7021 77.2731 96.7021 76.3298C96.7021 75.3865 96.7359 75.3191 97.2074 75.3191C97.6117 75.3191 97.7128 75.2181 97.7128 74.8138C97.7128 74.4096 97.8138 74.3085 98.2181 74.3085C98.6223 74.3085 98.7234 74.2074 98.7234 73.8032C98.7234 73.3989 98.8245 73.2979 99.2287 73.2979H99.734V69.2553V65.2128H99.2287C98.8245 65.2128 98.7234 65.1117 98.7234 64.7074C98.7234 64.3032 98.6223 64.2021 98.2181 64.2021C97.8138 64.2021 97.7128 64.1011 97.7128 63.6968C97.7128 63.2926 97.6117 63.1915 97.2074 63.1915C96.7359 63.1915 96.7021 63.1242 96.7021 62.1808V61.1702H103.777H110.851V62.1808ZM45.1596 69.2553V71.2766H44.6543C44.25 71.2766 44.1489 71.1755 44.1489 70.7713C44.1489 70.2997 44.0816 70.266 43.1383 70.266H42.1277V69.2553V68.2447H43.1383C44.0816 68.2447 44.1489 68.2109 44.1489 67.7394C44.1489 67.3351 44.25 67.234 44.6543 67.234H45.1596V69.2553ZM58.2979 67.7394C58.2979 68.2334 58.3316 68.2447 59.8138 68.2447H61.3298V69.2553V70.266H59.8138C58.3316 70.266 58.2979 70.2773 58.2979 70.7713C58.2979 71.1755 58.1968 71.2766 57.7926 71.2766H57.2872V69.2553V67.234H57.7926C58.1968 67.234 58.2979 67.3351 58.2979 67.7394ZM97.7128 69.2553V71.2766H97.2074C96.8032 71.2766 96.7021 71.1755 96.7021 70.7713C96.7021 70.2773 96.6684 70.266 95.1862 70.266H93.6702V69.2553V68.2447H95.1862C96.6684 68.2447 96.7021 68.2334 96.7021 67.7394C96.7021 67.3351 96.8032 67.234 97.2074 67.234H97.7128V69.2553ZM110.851 67.7394C110.851 68.2109 110.918 68.2447 111.862 68.2447H112.872V69.2553V70.266H111.356H109.84V68.75C109.84 67.2678 109.852 67.234 110.346 67.234C110.75 67.234 110.851 67.3351 110.851 67.7394ZM43.1383 81.8883C43.1383 82.3599 43.2056 82.3936 44.1489 82.3936C45.0923 82.3936 45.1596 82.3599 45.1596 81.8883C45.1596 81.484 45.2606 81.383 45.6649 81.383H46.1702V83.4043V85.4255H45.6649C45.2606 85.4255 45.1596 85.3245 45.1596 84.9202C45.1596 84.516 45.0585 84.4149 44.6543 84.4149C44.25 84.4149 44.1489 84.516 44.1489 84.9202C44.1489 85.3245 44.0479 85.4255 43.6436 85.4255C43.1721 85.4255 43.1383 85.3582 43.1383 84.4149C43.1383 83.4716 43.1045 83.4043 42.633 83.4043C42.1614 83.4043 42.1277 83.3369 42.1277 82.3936C42.1277 81.4503 42.1614 81.383 42.633 81.383C43.0372 81.383 43.1383 81.484 43.1383 81.8883ZM58.2979 81.8883C58.2979 82.3599 58.3652 82.3936 59.3085 82.3936C60.2518 82.3936 60.3191 82.3599 60.3191 81.8883C60.3191 81.484 60.4202 81.383 60.8245 81.383H61.3298V83.4043V85.4255H60.8245C60.4202 85.4255 60.3191 85.3245 60.3191 84.9202C60.3191 84.4262 60.2854 84.4149 58.8032 84.4149H57.2872V82.8989C57.2872 81.4167 57.2986 81.383 57.7926 81.383C58.1968 81.383 58.2979 81.484 58.2979 81.8883ZM94.6809 81.8883C94.6809 82.3599 94.7482 82.3936 95.6915 82.3936C96.6348 82.3936 96.7021 82.3599 96.7021 81.8883C96.7021 81.484 96.8032 81.383 97.2074 81.383C97.7014 81.383 97.7128 81.4167 97.7128 82.8989V84.4149H96.1968C94.7146 84.4149 94.6809 84.4262 94.6809 84.9202C94.6809 85.3245 94.5798 85.4255 94.1755 85.4255H93.6702V83.4043V81.383H94.1755C94.5798 81.383 94.6809 81.484 94.6809 81.8883ZM109.84 81.8883C109.84 82.3823 109.874 82.3936 111.356 82.3936C112.839 82.3936 112.872 82.4049 112.872 82.8989C112.872 83.3032 112.771 83.4043 112.367 83.4043C111.895 83.4043 111.862 83.4716 111.862 84.4149C111.862 85.3582 111.828 85.4255 111.356 85.4255C110.952 85.4255 110.851 85.3245 110.851 84.9202C110.851 84.516 110.75 84.4149 110.346 84.4149C109.941 84.4149 109.84 84.516 109.84 84.9202C109.84 85.3245 109.739 85.4255 109.335 85.4255H108.83V83.4043V81.383H109.335C109.739 81.383 109.84 81.484 109.84 81.8883ZM48.1915 96.5425C48.1915 97.4859 48.2252 97.5532 48.6968 97.5532C49.1684 97.5532 49.2021 97.6205 49.2021 98.5638C49.2021 99.5072 49.1684 99.5745 48.6968 99.5745C48.2926 99.5745 48.1915 99.4734 48.1915 99.0691C48.1915 98.6649 48.0904 98.5638 47.6862 98.5638C47.2819 98.5638 47.1809 98.6649 47.1809 99.0691C47.1809 99.5407 47.1135 99.5745 46.1702 99.5745H45.1596V98.0585V96.5425H46.1702C47.1135 96.5425 47.1809 96.5088 47.1809 96.0372C47.1809 95.633 47.2819 95.5319 47.6862 95.5319C48.1577 95.5319 48.1915 95.5992 48.1915 96.5425ZM59.3085 96.0372C59.3085 96.4415 59.4096 96.5425 59.8138 96.5425C60.2181 96.5425 60.3191 96.4415 60.3191 96.0372C60.3191 95.5657 60.3865 95.5319 61.3298 95.5319H62.3404V97.5532V99.5745H61.8351C61.4309 99.5745 61.3298 99.4734 61.3298 99.0691C61.3298 98.6649 61.2287 98.5638 60.8245 98.5638C60.4202 98.5638 60.3191 98.6649 60.3191 99.0691C60.3191 99.4734 60.2181 99.5745 59.8138 99.5745C59.4096 99.5745 59.3085 99.4734 59.3085 99.0691C59.3085 98.6649 59.2074 98.5638 58.8032 98.5638C58.3092 98.5638 58.2979 98.5301 58.2979 97.0479C58.2979 95.5657 58.3092 95.5319 58.8032 95.5319C59.2074 95.5319 59.3085 95.633 59.3085 96.0372ZM94.6809 96.0372C94.6809 96.4415 94.7819 96.5425 95.1862 96.5425C95.5904 96.5425 95.6915 96.4415 95.6915 96.0372C95.6915 95.633 95.7926 95.5319 96.1968 95.5319C96.6908 95.5319 96.7021 95.5657 96.7021 97.0479C96.7021 98.5301 96.6908 98.5638 96.1968 98.5638C95.7926 98.5638 95.6915 98.6649 95.6915 99.0691C95.6915 99.4734 95.5904 99.5745 95.1862 99.5745C94.7819 99.5745 94.6809 99.4734 94.6809 99.0691C94.6809 98.6649 94.5798 98.5638 94.1755 98.5638C93.7713 98.5638 93.6702 98.6649 93.6702 99.0691C93.6702 99.4734 93.5692 99.5745 93.1649 99.5745H92.6596V97.5532V95.5319H93.6702C94.6135 95.5319 94.6809 95.5657 94.6809 96.0372ZM107.819 96.0372C107.819 96.5088 107.886 96.5425 108.83 96.5425H109.84V98.0585V99.5745H108.83C107.886 99.5745 107.819 99.5407 107.819 99.0691C107.819 98.6649 107.718 98.5638 107.314 98.5638C106.91 98.5638 106.809 98.6649 106.809 99.0691C106.809 99.4734 106.707 99.5745 106.303 99.5745C105.832 99.5745 105.798 99.5072 105.798 98.5638C105.798 97.6205 105.832 97.5532 106.303 97.5532C106.775 97.5532 106.809 97.4859 106.809 96.5425C106.809 95.5992 106.842 95.5319 107.314 95.5319C107.718 95.5319 107.819 95.633 107.819 96.0372ZM53.2447 110.186C53.2447 110.59 53.3457 110.691 53.75 110.691C54.2216 110.691 54.2553 110.759 54.2553 111.702V112.713H53.2447C52.3014 112.713 52.234 112.747 52.234 113.218C52.234 113.622 52.133 113.723 51.7287 113.723C51.3245 113.723 51.2234 113.622 51.2234 113.218C51.2234 112.814 51.1223 112.713 50.7181 112.713C50.2465 112.713 50.2128 112.645 50.2128 111.702V110.691H51.2234C52.1667 110.691 52.234 110.658 52.234 110.186C52.234 109.782 52.3351 109.681 52.7394 109.681C53.1436 109.681 53.2447 109.782 53.2447 110.186ZM64.3617 111.702V113.723H63.8564C63.4521 113.723 63.3511 113.622 63.3511 113.218C63.3511 112.814 63.25 112.713 62.8457 112.713C62.4415 112.713 62.3404 112.814 62.3404 113.218C62.3404 113.622 62.2394 113.723 61.8351 113.723C61.4309 113.723 61.3298 113.622 61.3298 113.218C61.3298 112.814 61.2287 112.713 60.8245 112.713C60.3529 112.713 60.3191 112.645 60.3191 111.702V110.691H61.8351C63.3173 110.691 63.3511 110.68 63.3511 110.186C63.3511 109.782 63.4521 109.681 63.8564 109.681H64.3617V111.702ZM91.6489 110.186C91.6489 110.68 91.6827 110.691 93.1649 110.691H94.6809V111.702C94.6809 112.645 94.6471 112.713 94.1755 112.713C93.7713 112.713 93.6702 112.814 93.6702 113.218C93.6702 113.622 93.5692 113.723 93.1649 113.723C92.7606 113.723 92.6596 113.622 92.6596 113.218C92.6596 112.814 92.5585 112.713 92.1543 112.713C91.75 112.713 91.6489 112.814 91.6489 113.218C91.6489 113.622 91.5479 113.723 91.1436 113.723H90.6383V111.702V109.681H91.1436C91.5479 109.681 91.6489 109.782 91.6489 110.186ZM102.766 110.186C102.766 110.658 102.833 110.691 103.777 110.691H104.787V111.702C104.787 112.645 104.753 112.713 104.282 112.713C103.878 112.713 103.777 112.814 103.777 113.218C103.777 113.622 103.676 113.723 103.271 113.723C102.867 113.723 102.766 113.622 102.766 113.218C102.766 112.747 102.699 112.713 101.755 112.713H100.745V111.702C100.745 110.759 100.778 110.691 101.25 110.691C101.654 110.691 101.755 110.59 101.755 110.186C101.755 109.782 101.856 109.681 102.261 109.681C102.665 109.681 102.766 109.782 102.766 110.186ZM45.1596 127.367V129.894H45.6649H46.1702V133.431V136.968H46.6755H47.1809V140.505V144.043H47.6862H48.1915V147.074V150.106H43.6436H39.0957V148.59C39.0957 147.108 39.0844 147.074 38.5904 147.074H38.0851V143.537V140H37.5798H37.0745V136.463V132.926H36.5691H36.0638V129.388V125.851H35.5585C35.1543 125.851 35.0532 125.75 35.0532 125.346V124.84H40.1064H45.1596V127.367ZM56.2766 125.851C56.2766 126.794 56.3104 126.862 56.7819 126.862C57.1862 126.862 57.2872 126.963 57.2872 127.367C57.2872 127.839 57.3545 127.872 58.2979 127.872C59.2412 127.872 59.3085 127.906 59.3085 128.378C59.3085 128.782 59.4096 128.883 59.8138 128.883H60.3191V131.41V133.936H60.8245H61.3298V137.473V141.011H61.8351H62.3404V144.548V148.085H62.8457C63.3173 148.085 63.3511 148.152 63.3511 149.096V150.106H58.2979H53.2447V148.59C53.2447 147.108 53.2334 147.074 52.7394 147.074H52.234V143.032V138.989H51.7287H51.2234V135.452V131.915H50.7181H50.2128V128.378V124.84H53.2447H56.2766V125.851ZM68.4043 125.851C68.4043 126.794 68.3705 126.862 67.8989 126.862C67.4947 126.862 67.3936 126.761 67.3936 126.356C67.3936 125.952 67.2926 125.851 66.8883 125.851C66.484 125.851 66.383 125.952 66.383 126.356C66.383 126.761 66.2819 126.862 65.8777 126.862C65.4061 126.862 65.3723 126.794 65.3723 125.851V124.84H66.8883H68.4043V125.851ZM72.4468 127.872V130.904H71.9415C71.5372 130.904 71.4362 130.803 71.4362 130.399C71.4362 129.995 71.3351 129.894 70.9309 129.894C70.5266 129.894 70.4255 129.793 70.4255 129.388C70.4255 128.984 70.5266 128.883 70.9309 128.883C71.4249 128.883 71.4362 128.849 71.4362 127.367C71.4362 125.885 71.4249 125.851 70.9309 125.851C70.5266 125.851 70.4255 125.75 70.4255 125.346C70.4255 124.874 70.4928 124.84 71.4362 124.84H72.4468V127.872ZM84.5745 125.346C84.5745 125.75 84.4734 125.851 84.0692 125.851C83.5752 125.851 83.5638 125.885 83.5638 127.367C83.5638 128.849 83.5752 128.883 84.0692 128.883C84.4734 128.883 84.5745 128.984 84.5745 129.388C84.5745 129.793 84.4734 129.894 84.0692 129.894C83.6649 129.894 83.5638 129.995 83.5638 130.399C83.5638 130.803 83.4628 130.904 83.0585 130.904H82.5532V127.872V124.84H83.5638C84.5072 124.84 84.5745 124.874 84.5745 125.346ZM89.6277 125.851C89.6277 126.794 89.5939 126.862 89.1223 126.862C88.7181 126.862 88.617 126.761 88.617 126.356C88.617 125.952 88.516 125.851 88.1117 125.851C87.7074 125.851 87.6064 125.952 87.6064 126.356C87.6064 126.761 87.5053 126.862 87.1011 126.862C86.6295 126.862 86.5957 126.794 86.5957 125.851V124.84H88.1117H89.6277V125.851ZM104.787 128.378V131.915H104.282H103.777V135.452V138.989H103.271H102.766V142.527V146.064H102.261H101.755V148.085V150.106H96.7021H91.6489V149.096C91.6489 148.152 91.6827 148.085 92.1543 148.085H92.6596V144.548V141.011H93.1649H93.6702V137.473V133.936H94.1755H94.6809V131.41V128.883H95.1862C95.5904 128.883 95.6915 128.782 95.6915 128.378C95.6915 127.906 95.7588 127.872 96.7021 127.872C97.6455 127.872 97.7128 127.839 97.7128 127.367C97.7128 126.963 97.8138 126.862 98.2181 126.862C98.6897 126.862 98.7234 126.794 98.7234 125.851V124.84H101.755H104.787V128.378ZM119.947 125.346C119.947 125.75 119.846 125.851 119.441 125.851H118.936V129.388V132.926H118.431H117.926V136.463V140H117.42H116.915V143.537V147.074H116.41C115.916 147.074 115.904 147.108 115.904 148.59V150.106H111.356H106.809V147.074V144.043H107.314H107.819V140.505V136.968H108.324H108.83V133.431V129.894H109.335H109.84V127.367V124.84H114.894H119.947V125.346ZM66.383 131.41C66.383 131.904 66.4167 131.915 67.8989 131.915C69.3811 131.915 69.4149 131.926 69.4149 132.42C69.4149 132.824 69.3138 132.926 68.9096 132.926C68.438 132.926 68.4043 132.993 68.4043 133.936V134.947H70.4255H72.4468V142.527V150.106H69.9202H67.3936V146.569V143.032H66.8883H66.383V139.495V135.957H65.8777H65.3723V133.431V130.904H65.8777C66.2819 130.904 66.383 131.005 66.383 131.41ZM89.6277 133.431V135.957H89.1223H88.617V139.495V143.032H88.1117H87.6064V146.569V150.106H85.0798H82.5532V142.527V134.947H84.5745H86.5957V133.936C86.5957 132.993 86.562 132.926 86.0904 132.926C85.6862 132.926 85.5851 132.824 85.5851 132.42C85.5851 131.926 85.6189 131.915 87.1011 131.915C88.5833 131.915 88.617 131.904 88.617 131.41C88.617 131.005 88.7181 130.904 89.1223 130.904H89.6277V133.431Z" fill="white"/>
</g>
</svg>
