<svg width="210" height="354" viewBox="0 0 210 354" fill="none" xmlns="http://www.w3.org/2000/svg">
<path d="M182 138C182 204.274 146.854 258 103.5 258C60.1456 258 25 204.274 25 138C25 71.7258 60.1456 18 103.5 18C146.854 18 182 71.7258 182 138Z" fill="#5ab88c"/>
<path fill-rule="evenodd" clip-rule="evenodd" d="M105 354C105 354 210 164.542 210 106C210 47.4578 162.99 0 105 0C47.0101 0 0 47.4578 0 106C0 164.542 105 354 105 354ZM104.5 250.086C104.5 250.086 168 135.509 168 100.105C168 64.7007 139.57 36 104.5 36C69.4299 36 41 64.7007 41 100.105C41 135.509 104.5 250.086 104.5 250.086Z" fill="forestgreen"/>
<path fill-rule="evenodd" clip-rule="evenodd" d="M102.277 53.2723C102.277 53.5083 102.186 53.5447 101.596 53.5447C100.96 53.5447 100.915 53.5674 100.915 53.8851C100.915 54.1574 100.847 54.2255 100.574 54.2255C100.302 54.2255 100.234 54.2936 100.234 54.566C100.234 54.8383 100.166 54.9064 99.8936 54.9064C99.6213 54.9064 99.5532 54.9745 99.5532 55.2468C99.5532 55.5191 99.4851 55.5872 99.2128 55.5872C98.9404 55.5872 98.8723 55.6553 98.8723 55.9277C98.8723 56.2 98.8043 56.2681 98.5319 56.2681C98.2142 56.2681 98.1915 56.3134 98.1915 56.9489C98.1915 57.5844 98.1688 57.6298 97.8511 57.6298H97.5106V62.3957H97.8511C98.1688 62.3957 98.1915 62.4411 98.1915 63.0766C98.1915 63.7121 98.2142 63.7574 98.5319 63.7574C98.8496 63.7574 98.8723 63.8028 98.8723 64.4383C98.8723 65.0738 98.8951 65.1191 99.2128 65.1191C99.4851 65.1191 99.5532 65.1872 99.5532 65.4596C99.5532 65.7319 99.6213 65.8 99.8936 65.8C100.166 65.8 100.234 65.8681 100.234 66.1404V66.4809H79.1277V76.6936H81.1702V77.3745C81.1702 78.01 81.1475 78.0553 80.8298 78.0553C80.5574 78.0553 80.4894 78.1234 80.4894 78.3957C80.4894 78.6681 80.4213 78.7362 80.1489 78.7362C79.8312 78.7362 79.8085 78.7815 79.8085 79.417C79.8085 80.0525 79.7858 80.0979 79.4681 80.0979H79.1277V83.5021H79.4681C79.7858 83.5021 79.8085 83.5475 79.8085 84.183C79.8085 84.8185 79.8312 84.8638 80.1489 84.8638C80.4213 84.8638 80.4894 84.9319 80.4894 85.2043C80.4894 85.4766 80.5574 85.5447 80.8298 85.5447H81.1702V88.2681H80.8298C80.5574 88.2681 80.4894 88.3362 80.4894 88.6085C80.4894 88.8809 80.4213 88.9489 80.1489 88.9489H79.8085V93.034H80.1489C80.4666 93.034 80.4894 93.0794 80.4894 93.7149C80.4894 94.3504 80.5121 94.3957 80.8298 94.3957C81.1021 94.3957 81.1702 94.4638 81.1702 94.7362C81.1702 95.0085 81.2383 95.0766 81.5106 95.0766C81.783 95.0766 81.8511 95.1447 81.8511 95.417C81.8511 95.6894 81.9191 95.7574 82.1915 95.7574H82.5319V98.4809H82.1915C81.8738 98.4809 81.8511 98.5262 81.8511 99.1617C81.8511 99.7972 81.8283 99.8426 81.5106 99.8426C81.1778 99.8426 81.1702 99.8653 81.1702 100.864C81.1702 101.862 81.1778 101.885 81.5106 101.885C81.8283 101.885 81.8511 101.93 81.8511 102.566C81.8511 103.201 81.8738 103.247 82.1915 103.247C82.5092 103.247 82.5319 103.292 82.5319 103.928C82.5319 104.563 82.5547 104.609 82.8723 104.609C83.1447 104.609 83.2128 104.677 83.2128 104.949C83.2128 105.282 83.2355 105.289 84.234 105.289H85.2553V108.694H84.9149C84.5821 108.694 84.5745 108.716 84.5745 109.715C84.5745 110.713 84.5821 110.736 84.9149 110.736C85.2326 110.736 85.2553 110.782 85.2553 111.417C85.2553 112.053 85.2781 112.098 85.5957 112.098C85.9134 112.098 85.9362 112.143 85.9362 112.779C85.9362 113.414 85.9589 113.46 86.2766 113.46C86.5489 113.46 86.617 113.528 86.617 113.8C86.617 114.118 86.6624 114.14 87.2979 114.14C87.9334 114.14 87.9787 114.163 87.9787 114.481C87.9787 114.799 88.0241 114.821 88.6596 114.821C89.2951 114.821 89.3404 114.844 89.3404 115.162C89.3404 115.434 89.4085 115.502 89.6808 115.502C89.9532 115.502 90.0213 115.57 90.0213 115.843V116.183H74.3617V116.523C74.3617 116.796 74.2936 116.864 74.0213 116.864C73.7489 116.864 73.6809 116.932 73.6809 117.204C73.6809 117.477 73.6128 117.545 73.3404 117.545C73.0227 117.545 73 117.59 73 118.226C73 118.861 73.0227 118.906 73.3404 118.906H73.6809V123.672H74.3617V128.438H75.0426V133.204H75.7234V137.97H76.0638C76.3815 137.97 76.4043 138.016 76.4043 138.651C76.4043 139.287 76.427 139.332 76.7447 139.332C77.017 139.332 77.0851 139.4 77.0851 139.672V140.013H101.595L101.664 188.83H108.336L108.405 140.013H132.915V139.672C132.915 139.4 132.983 139.332 133.255 139.332C133.573 139.332 133.596 139.287 133.596 138.651C133.596 138.016 133.618 137.97 133.936 137.97H134.277V133.204H134.957V128.438H135.638V122.991H136.319V118.226H136.66C136.932 118.226 137 118.157 137 117.885C137 117.613 136.932 117.545 136.66 117.545C136.387 117.545 136.319 117.477 136.319 117.204C136.319 116.932 136.251 116.864 135.979 116.864C135.706 116.864 135.638 116.796 135.638 116.523V116.183H119.979V115.843C119.979 115.57 120.047 115.502 120.319 115.502C120.591 115.502 120.66 115.434 120.66 115.162C120.66 114.844 120.705 114.821 121.34 114.821C121.976 114.821 122.021 114.799 122.021 114.481C122.021 114.163 122.067 114.14 122.702 114.14C123.338 114.14 123.383 114.118 123.383 113.8C123.383 113.528 123.451 113.46 123.723 113.46C124.041 113.46 124.064 113.414 124.064 112.779C124.064 112.143 124.087 112.098 124.404 112.098C124.722 112.098 124.745 112.053 124.745 111.417C124.745 110.782 124.767 110.736 125.085 110.736C125.418 110.736 125.426 110.713 125.426 109.715C125.426 108.716 125.418 108.694 125.085 108.694H124.745V105.289H125.766C126.764 105.289 126.787 105.282 126.787 104.949C126.787 104.677 126.855 104.609 127.128 104.609C127.445 104.609 127.468 104.563 127.468 103.928C127.468 103.292 127.491 103.247 127.809 103.247C128.141 103.247 128.149 103.224 128.149 102.226C128.149 101.227 128.157 101.204 128.489 101.204C128.807 101.204 128.83 101.159 128.83 100.523C128.83 99.8879 128.807 99.8426 128.489 99.8426C128.172 99.8426 128.149 99.7972 128.149 99.1617C128.149 98.5262 128.126 98.4809 127.809 98.4809H127.468V95.7574H127.809C128.081 95.7574 128.149 95.6894 128.149 95.417C128.149 95.1447 128.217 95.0766 128.489 95.0766C128.762 95.0766 128.83 95.0085 128.83 94.7362C128.83 94.4638 128.898 94.3957 129.17 94.3957C129.488 94.3957 129.511 94.3504 129.511 93.7149C129.511 93.0794 129.533 93.034 129.851 93.034H130.191V88.9489H129.851C129.579 88.9489 129.511 88.8809 129.511 88.6085C129.511 88.3362 129.443 88.2681 129.17 88.2681C128.898 88.2681 128.83 88.2 128.83 87.9277C128.83 87.6553 128.762 87.5872 128.489 87.5872C128.217 87.5872 128.149 87.5192 128.149 87.2468C128.149 86.9745 128.217 86.9064 128.489 86.9064C128.807 86.9064 128.83 86.861 128.83 86.2255C128.83 85.59 128.853 85.5447 129.17 85.5447C129.443 85.5447 129.511 85.4766 129.511 85.2043C129.511 84.9319 129.579 84.8638 129.851 84.8638C130.169 84.8638 130.191 84.8185 130.191 84.183C130.191 83.5475 130.214 83.5021 130.532 83.5021H130.872V80.0979H130.532C130.214 80.0979 130.191 80.0525 130.191 79.417C130.191 78.7815 130.169 78.7362 129.851 78.7362C129.579 78.7362 129.511 78.6681 129.511 78.3957C129.511 78.1234 129.443 78.0553 129.17 78.0553C128.853 78.0553 128.83 78.01 128.83 77.3745V76.6936H130.872V66.4809H109.766V66.1404C109.766 65.8681 109.834 65.8 110.106 65.8C110.379 65.8 110.447 65.7319 110.447 65.4596C110.447 65.1872 110.515 65.1191 110.787 65.1191C111.105 65.1191 111.128 65.0738 111.128 64.4383C111.128 63.8028 111.15 63.7574 111.468 63.7574C111.786 63.7574 111.809 63.7121 111.809 63.0766C111.809 62.4411 111.831 62.3957 112.149 62.3957H112.489V57.6298H112.149C111.831 57.6298 111.809 57.5844 111.809 56.9489C111.809 56.3134 111.786 56.2681 111.468 56.2681C111.196 56.2681 111.128 56.2 111.128 55.9277C111.128 55.6553 111.06 55.5872 110.787 55.5872C110.515 55.5872 110.447 55.5191 110.447 55.2468C110.447 54.9745 110.379 54.9064 110.106 54.9064C109.834 54.9064 109.766 54.8383 109.766 54.566C109.766 54.2936 109.698 54.2255 109.426 54.2255C109.153 54.2255 109.085 54.1574 109.085 53.8851C109.085 53.5674 109.04 53.5447 108.404 53.5447C107.814 53.5447 107.723 53.5083 107.723 53.2723C107.723 53.0091 107.633 53 105 53C102.367 53 102.277 53.0091 102.277 53.2723ZM92.0638 77.3745C92.0638 78.01 92.0411 78.0553 91.7234 78.0553C91.4511 78.0553 91.383 78.1234 91.383 78.3957C91.383 78.6681 91.3149 78.7362 91.0425 78.7362C90.7702 78.7362 90.7021 78.8043 90.7021 79.0766C90.7021 79.3489 90.634 79.417 90.3617 79.417H90.0213V84.8638H90.3617C90.634 84.8638 90.7021 84.9319 90.7021 85.2043C90.7021 85.4766 90.7702 85.5447 91.0425 85.5447C91.3149 85.5447 91.383 85.6128 91.383 85.8851C91.383 86.1574 91.4511 86.2255 91.7234 86.2255C92.0411 86.2255 92.0638 86.2709 92.0638 86.9064C92.0638 87.5419 92.0411 87.5872 91.7234 87.5872C91.4511 87.5872 91.383 87.6553 91.383 87.9277C91.383 88.2 91.3149 88.2681 91.0425 88.2681C90.7702 88.2681 90.7021 88.3362 90.7021 88.6085C90.7021 88.8809 90.634 88.9489 90.3617 88.9489H90.0213V93.7149H90.3617C90.634 93.7149 90.7021 93.783 90.7021 94.0553C90.7021 94.3277 90.7702 94.3957 91.0425 94.3957C91.3149 94.3957 91.383 94.4638 91.383 94.7362C91.383 95.0085 91.4511 95.0766 91.7234 95.0766H92.0638V97.8H91.7234C91.4511 97.8 91.383 97.8681 91.383 98.1404C91.383 98.4128 91.3149 98.4809 91.0425 98.4809H90.7021V103.247H91.0425C91.3149 103.247 91.383 103.315 91.383 103.587C91.383 103.86 91.4511 103.928 91.7234 103.928C91.9957 103.928 92.0638 103.996 92.0638 104.268C92.0638 104.54 92.1319 104.609 92.4043 104.609C92.6766 104.609 92.7447 104.677 92.7447 104.949C92.7447 105.221 92.8128 105.289 93.0851 105.289C93.4179 105.289 93.4255 105.312 93.4255 106.311C93.4255 107.309 93.4179 107.332 93.0851 107.332C92.8128 107.332 92.7447 107.4 92.7447 107.672C92.7447 107.945 92.6766 108.013 92.4043 108.013H92.0638V112.779H92.4043C92.6766 112.779 92.7447 112.847 92.7447 113.119C92.7447 113.391 92.8128 113.46 93.0851 113.46C93.3574 113.46 93.4255 113.528 93.4255 113.8C93.4255 114.072 93.4936 114.14 93.766 114.14C94.0383 114.14 94.1064 114.209 94.1064 114.481C94.1064 114.753 94.1745 114.821 94.4468 114.821C94.7191 114.821 94.7872 114.889 94.7872 115.162C94.7872 115.434 94.8553 115.502 95.1277 115.502C95.4 115.502 95.4681 115.57 95.4681 115.843C95.4681 116.16 95.4227 116.183 94.7872 116.183C94.1517 116.183 94.1064 116.16 94.1064 115.843C94.1064 115.57 94.0383 115.502 93.766 115.502C93.4936 115.502 93.4255 115.434 93.4255 115.162V114.821H90.7021V113.8C90.7021 112.801 90.7097 112.779 91.0425 112.779C91.3753 112.779 91.383 112.756 91.383 111.757C91.383 110.759 91.3753 110.736 91.0425 110.736C90.7249 110.736 90.7021 110.691 90.7021 110.055C90.7021 109.42 90.6794 109.374 90.3617 109.374C90.044 109.374 90.0213 109.329 90.0213 108.694C90.0213 108.058 89.9985 108.013 89.6808 108.013C89.4085 108.013 89.3404 107.945 89.3404 107.672C89.3404 107.355 89.2951 107.332 88.6596 107.332C88.0241 107.332 87.9787 107.309 87.9787 106.991C87.9787 106.719 87.9106 106.651 87.6383 106.651C87.366 106.651 87.2979 106.583 87.2979 106.311C87.2979 106.038 87.2298 105.97 86.9574 105.97C86.6246 105.97 86.617 105.947 86.617 104.949C86.617 103.95 86.6246 103.928 86.9574 103.928H87.2979V99.8426H86.9574C86.6398 99.8426 86.617 99.7972 86.617 99.1617C86.617 98.5262 86.5943 98.4809 86.2766 98.4809C86.0043 98.4809 85.9362 98.4128 85.9362 98.1404C85.9362 97.8227 85.8908 97.8 85.2553 97.8H84.5745V96.7787C84.5745 95.7802 84.5668 95.7574 84.234 95.7574C83.9617 95.7574 83.8936 95.6894 83.8936 95.417C83.8936 95.1447 83.9617 95.0766 84.234 95.0766C84.5064 95.0766 84.5745 95.0085 84.5745 94.7362C84.5745 94.4638 84.6426 94.3957 84.9149 94.3957C85.2477 94.3957 85.2553 94.373 85.2553 93.3745C85.2553 92.3759 85.2629 92.3532 85.5957 92.3532C85.8681 92.3532 85.9362 92.2851 85.9362 92.0128C85.9362 91.7404 85.8681 91.6723 85.5957 91.6723H85.2553V88.9489H84.9149C84.6426 88.9489 84.5745 88.8809 84.5745 88.6085C84.5745 88.3362 84.5064 88.2681 84.234 88.2681C83.9617 88.2681 83.8936 88.2 83.8936 87.9277C83.8936 87.6553 83.8255 87.5872 83.5532 87.5872C83.2204 87.5872 83.2128 87.5645 83.2128 86.566C83.2128 85.5674 83.2204 85.5447 83.5532 85.5447C83.8255 85.5447 83.8936 85.4766 83.8936 85.2043C83.8936 84.9319 83.9617 84.8638 84.234 84.8638C84.5668 84.8638 84.5745 84.8411 84.5745 83.8426C84.5745 82.844 84.5821 82.8213 84.9149 82.8213C85.2326 82.8213 85.2553 82.7759 85.2553 82.1404C85.2553 81.5049 85.2326 81.4596 84.9149 81.4596C84.5821 81.4596 84.5745 81.4368 84.5745 80.4383C84.5745 79.4398 84.5668 79.417 84.234 79.417C83.9617 79.417 83.8936 79.3489 83.8936 79.0766C83.8936 78.8043 83.8255 78.7362 83.5532 78.7362C83.2809 78.7362 83.2128 78.6681 83.2128 78.3957C83.2128 78.1234 83.1447 78.0553 82.8723 78.0553C82.5547 78.0553 82.5319 78.01 82.5319 77.3745V76.6936H92.0638V77.3745ZM101.596 116.183H96.8298V115.162C96.8298 114.163 96.8374 114.14 97.1702 114.14C97.503 114.14 97.5106 114.118 97.5106 113.119C97.5106 112.121 97.5183 112.098 97.8511 112.098C98.1688 112.098 98.1915 112.053 98.1915 111.417C98.1915 110.782 98.1688 110.736 97.8511 110.736C97.5183 110.736 97.5106 110.713 97.5106 109.715C97.5106 108.716 97.503 108.694 97.1702 108.694C96.8979 108.694 96.8298 108.626 96.8298 108.353C96.8298 108.081 96.7617 108.013 96.4894 108.013C96.217 108.013 96.1489 107.945 96.1489 107.672C96.1489 107.4 96.0809 107.332 95.8085 107.332C95.5362 107.332 95.4681 107.264 95.4681 106.991C95.4681 106.719 95.4 106.651 95.1277 106.651C94.7949 106.651 94.7872 106.628 94.7872 105.63C94.7872 104.631 94.7949 104.609 95.1277 104.609C95.4 104.609 95.4681 104.54 95.4681 104.268C95.4681 103.996 95.5362 103.928 95.8085 103.928H96.1489V99.1617H95.8085C95.4908 99.1617 95.4681 99.1164 95.4681 98.4809C95.4681 97.8453 95.4453 97.8 95.1277 97.8C94.8553 97.8 94.7872 97.7319 94.7872 97.4596C94.7872 97.1872 94.7191 97.1191 94.4468 97.1191C94.114 97.1191 94.1064 97.0964 94.1064 96.0979C94.1064 95.0993 94.114 95.0766 94.4468 95.0766C94.7191 95.0766 94.7872 95.0085 94.7872 94.7362C94.7872 94.4638 94.8553 94.3957 95.1277 94.3957H95.4681V88.9489H95.1277C94.8553 88.9489 94.7872 88.8809 94.7872 88.6085C94.7872 88.3362 94.7191 88.2681 94.4468 88.2681C94.1745 88.2681 94.1064 88.2 94.1064 87.9277C94.1064 87.6553 94.0383 87.5872 93.766 87.5872C93.4332 87.5872 93.4255 87.5645 93.4255 86.566C93.4255 85.5674 93.4332 85.5447 93.766 85.5447C94.0383 85.5447 94.1064 85.4766 94.1064 85.2043C94.1064 84.9319 94.1745 84.8638 94.4468 84.8638C94.7191 84.8638 94.7872 84.7957 94.7872 84.5234C94.7872 84.2511 94.8553 84.183 95.1277 84.183H95.4681V80.0979H95.1277C94.81 80.0979 94.7872 80.0525 94.7872 79.417C94.7872 78.7815 94.7645 78.7362 94.4468 78.7362C94.1745 78.7362 94.1064 78.6681 94.1064 78.3957C94.1064 78.1234 94.0383 78.0553 93.766 78.0553C93.4483 78.0553 93.4255 78.01 93.4255 77.3745V76.6936H101.596V116.183ZM116.574 77.3745C116.574 78.01 116.552 78.0553 116.234 78.0553C115.962 78.0553 115.894 78.1234 115.894 78.3957C115.894 78.6681 115.826 78.7362 115.553 78.7362C115.236 78.7362 115.213 78.7815 115.213 79.417C115.213 80.0525 115.19 80.0979 114.872 80.0979H114.532V84.183H114.872C115.19 84.183 115.213 84.2283 115.213 84.8638V85.5447H116.574V86.566C116.574 87.5645 116.567 87.5872 116.234 87.5872C115.962 87.5872 115.894 87.6553 115.894 87.9277C115.894 88.2 115.826 88.2681 115.553 88.2681C115.281 88.2681 115.213 88.3362 115.213 88.6085C115.213 88.8809 115.145 88.9489 114.872 88.9489H114.532V94.3957H114.872C115.145 94.3957 115.213 94.4638 115.213 94.7362C115.213 95.0085 115.281 95.0766 115.553 95.0766C115.886 95.0766 115.894 95.0993 115.894 96.0979C115.894 97.0964 115.886 97.1191 115.553 97.1191C115.281 97.1191 115.213 97.1872 115.213 97.4596C115.213 97.7319 115.145 97.8 114.872 97.8C114.555 97.8 114.532 97.8453 114.532 98.4809C114.532 99.1164 114.509 99.1617 114.191 99.1617H113.851V103.928H114.191C114.464 103.928 114.532 103.996 114.532 104.268C114.532 104.54 114.6 104.609 114.872 104.609C115.205 104.609 115.213 104.631 115.213 105.63C115.213 106.628 115.205 106.651 114.872 106.651C114.6 106.651 114.532 106.719 114.532 106.991C114.532 107.264 114.464 107.332 114.191 107.332C113.919 107.332 113.851 107.4 113.851 107.672C113.851 107.945 113.783 108.013 113.511 108.013C113.238 108.013 113.17 108.081 113.17 108.353C113.17 108.626 113.102 108.694 112.83 108.694C112.497 108.694 112.489 108.716 112.489 109.715C112.489 110.713 112.482 110.736 112.149 110.736C111.831 110.736 111.809 110.782 111.809 111.417C111.809 112.053 111.831 112.098 112.149 112.098C112.482 112.098 112.489 112.121 112.489 113.119C112.489 114.118 112.497 114.14 112.83 114.14C113.163 114.14 113.17 114.163 113.17 115.162V116.183H108.404V76.6936H116.574V77.3745ZM127.468 77.3745C127.468 78.01 127.445 78.0553 127.128 78.0553C126.855 78.0553 126.787 78.1234 126.787 78.3957C126.787 78.6681 126.719 78.7362 126.447 78.7362C126.174 78.7362 126.106 78.8043 126.106 79.0766C126.106 79.3489 126.038 79.417 125.766 79.417C125.433 79.417 125.426 79.4398 125.426 80.4383C125.426 81.4368 125.418 81.4596 125.085 81.4596C124.767 81.4596 124.745 81.5049 124.745 82.1404C124.745 82.7759 124.767 82.8213 125.085 82.8213C125.418 82.8213 125.426 82.844 125.426 83.8426C125.426 84.8411 125.433 84.8638 125.766 84.8638C126.038 84.8638 126.106 84.9319 126.106 85.2043C126.106 85.4766 126.174 85.5447 126.447 85.5447C126.78 85.5447 126.787 85.5674 126.787 86.566C126.787 87.5645 126.78 87.5872 126.447 87.5872C126.174 87.5872 126.106 87.6553 126.106 87.9277C126.106 88.2 126.038 88.2681 125.766 88.2681C125.494 88.2681 125.426 88.3362 125.426 88.6085C125.426 88.8809 125.357 88.9489 125.085 88.9489C124.752 88.9489 124.745 88.9717 124.745 89.9702C124.745 90.9688 124.737 90.9915 124.404 90.9915C124.087 90.9915 124.064 91.0368 124.064 91.6723C124.064 92.3078 124.087 92.3532 124.404 92.3532C124.737 92.3532 124.745 92.3759 124.745 93.3745C124.745 94.373 124.752 94.3957 125.085 94.3957C125.357 94.3957 125.426 94.4638 125.426 94.7362C125.426 95.0085 125.494 95.0766 125.766 95.0766C126.038 95.0766 126.106 95.1447 126.106 95.417C126.106 95.6894 126.038 95.7574 125.766 95.7574C125.433 95.7574 125.426 95.7802 125.426 96.7787V97.8H124.745C124.109 97.8 124.064 97.8227 124.064 98.1404C124.064 98.4128 123.996 98.4809 123.723 98.4809C123.406 98.4809 123.383 98.5262 123.383 99.1617C123.383 99.7972 123.36 99.8426 123.043 99.8426H122.702V103.928H123.043C123.375 103.928 123.383 103.95 123.383 104.949C123.383 105.947 123.375 105.97 123.043 105.97C122.77 105.97 122.702 106.038 122.702 106.311C122.702 106.583 122.634 106.651 122.362 106.651C122.089 106.651 122.021 106.719 122.021 106.991C122.021 107.309 121.976 107.332 121.34 107.332C120.705 107.332 120.66 107.355 120.66 107.672C120.66 107.945 120.591 108.013 120.319 108.013C120.047 108.013 119.979 108.081 119.979 108.353C119.979 108.626 119.911 108.694 119.638 108.694C119.305 108.694 119.298 108.716 119.298 109.715C119.298 110.713 119.29 110.736 118.957 110.736C118.625 110.736 118.617 110.759 118.617 111.757C118.617 112.756 118.625 112.779 118.957 112.779C119.29 112.779 119.298 112.801 119.298 113.8V114.821H116.574V115.162C116.574 115.434 116.506 115.502 116.234 115.502C115.962 115.502 115.894 115.57 115.894 115.843C115.894 116.16 115.848 116.183 115.213 116.183C114.577 116.183 114.532 116.16 114.532 115.843C114.532 115.57 114.6 115.502 114.872 115.502C115.145 115.502 115.213 115.434 115.213 115.162C115.213 114.889 115.281 114.821 115.553 114.821C115.826 114.821 115.894 114.753 115.894 114.481C115.894 114.209 115.962 114.14 116.234 114.14C116.506 114.14 116.574 114.072 116.574 113.8C116.574 113.528 116.643 113.46 116.915 113.46C117.187 113.46 117.255 113.391 117.255 113.119C117.255 112.847 117.323 112.779 117.596 112.779H117.936V108.013H117.596C117.323 108.013 117.255 107.945 117.255 107.672C117.255 107.4 117.187 107.332 116.915 107.332C116.582 107.332 116.574 107.309 116.574 106.311C116.574 105.312 116.582 105.289 116.915 105.289C117.187 105.289 117.255 105.221 117.255 104.949C117.255 104.677 117.323 104.609 117.596 104.609C117.868 104.609 117.936 104.54 117.936 104.268C117.936 103.996 118.004 103.928 118.277 103.928C118.549 103.928 118.617 103.86 118.617 103.587C118.617 103.315 118.685 103.247 118.957 103.247H119.298V98.4809H118.957C118.685 98.4809 118.617 98.4128 118.617 98.1404C118.617 97.8681 118.549 97.8 118.277 97.8H117.936V95.0766H118.277C118.549 95.0766 118.617 95.0085 118.617 94.7362C118.617 94.4638 118.685 94.3957 118.957 94.3957C119.23 94.3957 119.298 94.3277 119.298 94.0553C119.298 93.783 119.366 93.7149 119.638 93.7149H119.979V88.9489H119.638C119.366 88.9489 119.298 88.8809 119.298 88.6085C119.298 88.3362 119.23 88.2681 118.957 88.2681C118.685 88.2681 118.617 88.2 118.617 87.9277C118.617 87.6553 118.549 87.5872 118.277 87.5872C117.959 87.5872 117.936 87.5419 117.936 86.9064C117.936 86.2709 117.959 86.2255 118.277 86.2255C118.549 86.2255 118.617 86.1574 118.617 85.8851C118.617 85.6128 118.685 85.5447 118.957 85.5447C119.23 85.5447 119.298 85.4766 119.298 85.2043C119.298 84.9319 119.366 84.8638 119.638 84.8638H119.979V79.417H119.638C119.366 79.417 119.298 79.3489 119.298 79.0766C119.298 78.8043 119.23 78.7362 118.957 78.7362C118.685 78.7362 118.617 78.6681 118.617 78.3957C118.617 78.1234 118.549 78.0553 118.277 78.0553C117.959 78.0553 117.936 78.01 117.936 77.3745V76.6936H127.468V77.3745ZM83.2128 83.5021H82.8723C82.6 83.5021 82.5319 83.434 82.5319 83.1617C82.5319 82.844 82.4866 82.8213 81.8511 82.8213H81.1702V81.4596H81.8511C82.4866 81.4596 82.5319 81.4368 82.5319 81.1191C82.5319 80.8468 82.6 80.7787 82.8723 80.7787H83.2128V83.5021ZM92.0638 81.1191C92.0638 81.4519 92.0866 81.4596 93.0851 81.4596H94.1064V82.8213H93.0851C92.0866 82.8213 92.0638 82.8289 92.0638 83.1617C92.0638 83.434 91.9957 83.5021 91.7234 83.5021H91.383V80.7787H91.7234C91.9957 80.7787 92.0638 80.8468 92.0638 81.1191ZM118.617 83.5021H118.277C118.004 83.5021 117.936 83.434 117.936 83.1617C117.936 82.8289 117.913 82.8213 116.915 82.8213H115.894V81.4596H116.915C117.913 81.4596 117.936 81.4519 117.936 81.1191C117.936 80.8468 118.004 80.7787 118.277 80.7787H118.617V83.5021ZM127.468 81.1191C127.468 81.4368 127.513 81.4596 128.149 81.4596H128.83V82.8213H126.787V81.8C126.787 80.8015 126.795 80.7787 127.128 80.7787C127.4 80.7787 127.468 80.8468 127.468 81.1191ZM81.8511 90.6511C81.8511 90.9687 81.8964 90.9915 82.5319 90.9915C83.1674 90.9915 83.2128 90.9687 83.2128 90.6511C83.2128 90.3787 83.2809 90.3106 83.5532 90.3106H83.8936V93.034H83.5532C83.2809 93.034 83.2128 92.966 83.2128 92.6936C83.2128 92.4213 83.1447 92.3532 82.8723 92.3532C82.6 92.3532 82.5319 92.4213 82.5319 92.6936C82.5319 92.966 82.4638 93.034 82.1915 93.034C81.8738 93.034 81.8511 92.9887 81.8511 92.3532C81.8511 91.7177 81.8283 91.6723 81.5106 91.6723C81.193 91.6723 81.1702 91.627 81.1702 90.9915C81.1702 90.356 81.193 90.3106 81.5106 90.3106C81.783 90.3106 81.8511 90.3787 81.8511 90.6511ZM92.0638 90.6511C92.0638 90.9687 92.1092 90.9915 92.7447 90.9915C93.3802 90.9915 93.4255 90.9687 93.4255 90.6511C93.4255 90.3787 93.4936 90.3106 93.766 90.3106H94.1064V93.034H93.766C93.4936 93.034 93.4255 92.966 93.4255 92.6936C93.4255 92.3608 93.4028 92.3532 92.4043 92.3532H91.383V91.3319C91.383 90.3334 91.3906 90.3106 91.7234 90.3106C91.9957 90.3106 92.0638 90.3787 92.0638 90.6511ZM116.574 90.6511C116.574 90.9687 116.62 90.9915 117.255 90.9915C117.891 90.9915 117.936 90.9687 117.936 90.6511C117.936 90.3787 118.004 90.3106 118.277 90.3106C118.609 90.3106 118.617 90.3334 118.617 91.3319V92.3532H117.596C116.597 92.3532 116.574 92.3608 116.574 92.6936C116.574 92.966 116.506 93.034 116.234 93.034H115.894V90.3106H116.234C116.506 90.3106 116.574 90.3787 116.574 90.6511ZM126.787 90.6511C126.787 90.9839 126.81 90.9915 127.809 90.9915C128.807 90.9915 128.83 90.9991 128.83 91.3319C128.83 91.6043 128.762 91.6723 128.489 91.6723C128.172 91.6723 128.149 91.7177 128.149 92.3532C128.149 92.9887 128.126 93.034 127.809 93.034C127.536 93.034 127.468 92.966 127.468 92.6936C127.468 92.4213 127.4 92.3532 127.128 92.3532C126.855 92.3532 126.787 92.4213 126.787 92.6936C126.787 92.966 126.719 93.034 126.447 93.034H126.106V90.3106H126.447C126.719 90.3106 126.787 90.3787 126.787 90.6511ZM85.2553 100.523C85.2553 101.159 85.2781 101.204 85.5957 101.204C85.9134 101.204 85.9362 101.25 85.9362 101.885C85.9362 102.521 85.9134 102.566 85.5957 102.566C85.3234 102.566 85.2553 102.498 85.2553 102.226C85.2553 101.953 85.1872 101.885 84.9149 101.885C84.6426 101.885 84.5745 101.953 84.5745 102.226C84.5745 102.543 84.5291 102.566 83.8936 102.566H83.2128V100.523H83.8936C84.5291 100.523 84.5745 100.501 84.5745 100.183C84.5745 99.9106 84.6426 99.8426 84.9149 99.8426C85.2326 99.8426 85.2553 99.8879 85.2553 100.523ZM92.7447 100.183C92.7447 100.455 92.8128 100.523 93.0851 100.523C93.3574 100.523 93.4255 100.455 93.4255 100.183C93.4255 99.8653 93.4709 99.8426 94.1064 99.8426H94.7872V102.566H94.4468C94.1745 102.566 94.1064 102.498 94.1064 102.226C94.1064 101.953 94.0383 101.885 93.766 101.885C93.4936 101.885 93.4255 101.953 93.4255 102.226C93.4255 102.498 93.3574 102.566 93.0851 102.566C92.8128 102.566 92.7447 102.498 92.7447 102.226C92.7447 101.953 92.6766 101.885 92.4043 101.885C92.0715 101.885 92.0638 101.862 92.0638 100.864C92.0638 99.8653 92.0715 99.8426 92.4043 99.8426C92.6766 99.8426 92.7447 99.9106 92.7447 100.183ZM116.574 100.183C116.574 100.455 116.643 100.523 116.915 100.523C117.187 100.523 117.255 100.455 117.255 100.183C117.255 99.9106 117.323 99.8426 117.596 99.8426C117.929 99.8426 117.936 99.8653 117.936 100.864C117.936 101.862 117.929 101.885 117.596 101.885C117.323 101.885 117.255 101.953 117.255 102.226C117.255 102.498 117.187 102.566 116.915 102.566C116.643 102.566 116.574 102.498 116.574 102.226C116.574 101.953 116.506 101.885 116.234 101.885C115.962 101.885 115.894 101.953 115.894 102.226C115.894 102.498 115.826 102.566 115.553 102.566H115.213V99.8426H115.894C116.529 99.8426 116.574 99.8653 116.574 100.183ZM125.426 100.183C125.426 100.501 125.471 100.523 126.106 100.523H126.787V102.566H126.106C125.471 102.566 125.426 102.543 125.426 102.226C125.426 101.953 125.357 101.885 125.085 101.885C124.813 101.885 124.745 101.953 124.745 102.226C124.745 102.498 124.677 102.566 124.404 102.566C124.087 102.566 124.064 102.521 124.064 101.885C124.064 101.25 124.087 101.204 124.404 101.204C124.722 101.204 124.745 101.159 124.745 100.523C124.745 99.8879 124.767 99.8426 125.085 99.8426C125.357 99.8426 125.426 99.9106 125.426 100.183ZM88.6596 109.715C88.6596 109.987 88.7277 110.055 89 110.055C89.3177 110.055 89.3404 110.101 89.3404 110.736V111.417H88.6596C88.0241 111.417 87.9787 111.44 87.9787 111.757C87.9787 112.03 87.9106 112.098 87.6383 112.098C87.366 112.098 87.2979 112.03 87.2979 111.757C87.2979 111.485 87.2298 111.417 86.9574 111.417C86.6398 111.417 86.617 111.372 86.617 110.736V110.055H87.2979C87.9334 110.055 87.9787 110.033 87.9787 109.715C87.9787 109.443 88.0468 109.374 88.3191 109.374C88.5915 109.374 88.6596 109.443 88.6596 109.715ZM96.1489 112.098H95.8085C95.5362 112.098 95.4681 112.03 95.4681 111.757C95.4681 111.485 95.4 111.417 95.1277 111.417C94.8553 111.417 94.7872 111.485 94.7872 111.757C94.7872 112.03 94.7191 112.098 94.4468 112.098C94.1745 112.098 94.1064 112.03 94.1064 111.757C94.1064 111.485 94.0383 111.417 93.766 111.417C93.4483 111.417 93.4255 111.372 93.4255 110.736V110.055H94.4468C95.4453 110.055 95.4681 110.048 95.4681 109.715C95.4681 109.443 95.5362 109.374 95.8085 109.374H96.1489V112.098ZM114.532 109.715C114.532 110.048 114.555 110.055 115.553 110.055H116.574V110.736C116.574 111.372 116.552 111.417 116.234 111.417C115.962 111.417 115.894 111.485 115.894 111.757C115.894 112.03 115.826 112.098 115.553 112.098C115.281 112.098 115.213 112.03 115.213 111.757C115.213 111.485 115.145 111.417 114.872 111.417C114.6 111.417 114.532 111.485 114.532 111.757C114.532 112.03 114.464 112.098 114.191 112.098H113.851V109.374H114.191C114.464 109.374 114.532 109.443 114.532 109.715ZM122.021 109.715C122.021 110.033 122.067 110.055 122.702 110.055H123.383V110.736C123.383 111.372 123.36 111.417 123.043 111.417C122.77 111.417 122.702 111.485 122.702 111.757C122.702 112.03 122.634 112.098 122.362 112.098C122.089 112.098 122.021 112.03 122.021 111.757C122.021 111.44 121.976 111.417 121.34 111.417H120.66V110.736C120.66 110.101 120.682 110.055 121 110.055C121.272 110.055 121.34 109.987 121.34 109.715C121.34 109.443 121.409 109.374 121.681 109.374C121.953 109.374 122.021 109.443 122.021 109.715ZM83.2128 122.991H83.8936V127.757H84.5745V132.523H85.2553V136.609H79.1277V135.587C79.1277 134.589 79.12 134.566 78.7872 134.566H78.4468V129.8H77.766V125.034H77.0851V120.268H76.7447C76.4723 120.268 76.4043 120.2 76.4043 119.928V119.587H83.2128V122.991ZM90.7021 120.268C90.7021 120.904 90.7249 120.949 91.0425 120.949C91.3149 120.949 91.383 121.017 91.383 121.289C91.383 121.607 91.4283 121.63 92.0638 121.63C92.6993 121.63 92.7447 121.653 92.7447 121.97C92.7447 122.243 92.8128 122.311 93.0851 122.311H93.4255V125.715H94.1064V130.481H94.7872V135.247H95.1277C95.4453 135.247 95.4681 135.292 95.4681 135.928V136.609H88.6596V135.587C88.6596 134.589 88.6519 134.566 88.3191 134.566H87.9787V129.119H87.2979V124.353H86.617V119.587H90.7021V120.268ZM98.8723 120.268C98.8723 120.904 98.8496 120.949 98.5319 120.949C98.2596 120.949 98.1915 120.881 98.1915 120.609C98.1915 120.336 98.1234 120.268 97.8511 120.268C97.5787 120.268 97.5106 120.336 97.5106 120.609C97.5106 120.881 97.4426 120.949 97.1702 120.949C96.8525 120.949 96.8298 120.904 96.8298 120.268V119.587H98.8723V120.268ZM101.596 123.672H101.255C100.983 123.672 100.915 123.604 100.915 123.332C100.915 123.06 100.847 122.991 100.574 122.991C100.302 122.991 100.234 122.923 100.234 122.651C100.234 122.379 100.302 122.311 100.574 122.311C100.907 122.311 100.915 122.288 100.915 121.289C100.915 120.291 100.907 120.268 100.574 120.268C100.302 120.268 100.234 120.2 100.234 119.928C100.234 119.61 100.279 119.587 100.915 119.587H101.596V123.672ZM109.766 119.928C109.766 120.2 109.698 120.268 109.426 120.268C109.093 120.268 109.085 120.291 109.085 121.289C109.085 122.288 109.093 122.311 109.426 122.311C109.698 122.311 109.766 122.379 109.766 122.651C109.766 122.923 109.698 122.991 109.426 122.991C109.153 122.991 109.085 123.06 109.085 123.332C109.085 123.604 109.017 123.672 108.745 123.672H108.404V119.587H109.085C109.721 119.587 109.766 119.61 109.766 119.928ZM113.17 120.268C113.17 120.904 113.147 120.949 112.83 120.949C112.557 120.949 112.489 120.881 112.489 120.609C112.489 120.336 112.421 120.268 112.149 120.268C111.877 120.268 111.809 120.336 111.809 120.609C111.809 120.881 111.74 120.949 111.468 120.949C111.15 120.949 111.128 120.904 111.128 120.268V119.587H113.17V120.268ZM123.383 124.353H122.702V129.119H122.021V133.885H121.34V136.609H114.532V135.928C114.532 135.292 114.555 135.247 114.872 135.247H115.213V130.481H115.894V125.715H116.574V122.311H116.915C117.187 122.311 117.255 122.243 117.255 121.97C117.255 121.653 117.301 121.63 117.936 121.63C118.572 121.63 118.617 121.607 118.617 121.289C118.617 121.017 118.685 120.949 118.957 120.949C119.275 120.949 119.298 120.904 119.298 120.268V119.587H123.383V124.353ZM133.596 119.928C133.596 120.2 133.528 120.268 133.255 120.268H132.915V125.034H132.234V129.8H131.553V134.566H131.213C130.88 134.566 130.872 134.589 130.872 135.587V136.609H124.745V132.523H125.426V127.757H126.106V122.991H126.787V119.587H133.596V119.928ZM97.5106 124.013C97.5106 124.346 97.5334 124.353 98.5319 124.353C99.5304 124.353 99.5532 124.361 99.5532 124.694C99.5532 124.966 99.4851 125.034 99.2128 125.034C98.8951 125.034 98.8723 125.079 98.8723 125.715V126.396H101.596V136.609H98.1915V131.843H97.5106V127.077H96.8298V123.672H97.1702C97.4426 123.672 97.5106 123.74 97.5106 124.013ZM113.17 127.077H112.489V131.843H111.809V136.609H108.404V126.396H111.128V125.715C111.128 125.079 111.105 125.034 110.787 125.034C110.515 125.034 110.447 124.966 110.447 124.694C110.447 124.361 110.47 124.353 111.468 124.353C112.467 124.353 112.489 124.346 112.489 124.013C112.489 123.74 112.557 123.672 112.83 123.672H113.17V127.077Z" fill="white"/>
</svg>
